<mxfile host="app.diagrams.net" modified="2023-11-16T18:07:24.481Z" agent="Mozilla/5.0 (Windows NT 10.0; Win64; x64) AppleWebKit/537.36 (KHTML, like Gecko) Chrome/119.0.0.0 Safari/537.36" etag="iq3e5QIeH9YITdYv6Mqs" version="22.1.2" type="device">
  <diagram name="Page-1" id="_qWZDJvJdxhywtUVOnOd">
    <mxGraphModel dx="1725" dy="541" grid="1" gridSize="10" guides="1" tooltips="1" connect="1" arrows="1" fold="1" page="1" pageScale="1" pageWidth="850" pageHeight="1100" math="0" shadow="0">
      <root>
        <mxCell id="0" />
        <mxCell id="1" parent="0" />
        <mxCell id="NYRB-EgcLVh6eaDfTJj4-4" style="edgeStyle=orthogonalEdgeStyle;rounded=0;orthogonalLoop=1;jettySize=auto;html=1;exitX=1;exitY=0.5;exitDx=0;exitDy=0;" edge="1" parent="1" source="NYRB-EgcLVh6eaDfTJj4-1">
          <mxGeometry relative="1" as="geometry">
            <mxPoint x="200" y="259.8571428571429" as="targetPoint" />
          </mxGeometry>
        </mxCell>
        <mxCell id="NYRB-EgcLVh6eaDfTJj4-5" style="edgeStyle=orthogonalEdgeStyle;rounded=0;orthogonalLoop=1;jettySize=auto;html=1;exitX=0.5;exitY=1;exitDx=0;exitDy=0;entryX=0.5;entryY=0;entryDx=0;entryDy=0;" edge="1" parent="1" source="NYRB-EgcLVh6eaDfTJj4-1" target="NYRB-EgcLVh6eaDfTJj4-6">
          <mxGeometry relative="1" as="geometry">
            <mxPoint x="120" y="300" as="targetPoint" />
          </mxGeometry>
        </mxCell>
        <mxCell id="NYRB-EgcLVh6eaDfTJj4-1" value="Model 1" style="rounded=0;whiteSpace=wrap;html=1;" vertex="1" parent="1">
          <mxGeometry x="80" y="240" width="80" height="40" as="geometry" />
        </mxCell>
        <mxCell id="NYRB-EgcLVh6eaDfTJj4-2" value="" style="endArrow=classic;html=1;rounded=0;entryX=0;entryY=0.5;entryDx=0;entryDy=0;" edge="1" parent="1" target="NYRB-EgcLVh6eaDfTJj4-1">
          <mxGeometry width="50" height="50" relative="1" as="geometry">
            <mxPoint x="-10" y="260" as="sourcePoint" />
            <mxPoint x="290" y="160" as="targetPoint" />
          </mxGeometry>
        </mxCell>
        <mxCell id="NYRB-EgcLVh6eaDfTJj4-3" value="Incoming Data&lt;br&gt;" style="edgeLabel;html=1;align=center;verticalAlign=middle;resizable=0;points=[];" vertex="1" connectable="0" parent="NYRB-EgcLVh6eaDfTJj4-2">
          <mxGeometry x="-0.6571" y="3" relative="1" as="geometry">
            <mxPoint as="offset" />
          </mxGeometry>
        </mxCell>
        <mxCell id="NYRB-EgcLVh6eaDfTJj4-6" value="Benign" style="ellipse;whiteSpace=wrap;html=1;" vertex="1" parent="1">
          <mxGeometry x="80" y="310" width="80" height="40" as="geometry" />
        </mxCell>
        <mxCell id="NYRB-EgcLVh6eaDfTJj4-10" style="edgeStyle=orthogonalEdgeStyle;rounded=0;orthogonalLoop=1;jettySize=auto;html=1;exitX=1;exitY=0.5;exitDx=0;exitDy=0;entryX=0;entryY=0.5;entryDx=0;entryDy=0;" edge="1" parent="1" source="NYRB-EgcLVh6eaDfTJj4-8" target="NYRB-EgcLVh6eaDfTJj4-9">
          <mxGeometry relative="1" as="geometry" />
        </mxCell>
        <mxCell id="NYRB-EgcLVh6eaDfTJj4-11" style="edgeStyle=orthogonalEdgeStyle;rounded=0;orthogonalLoop=1;jettySize=auto;html=1;exitX=0;exitY=1;exitDx=0;exitDy=0;entryX=0.5;entryY=0;entryDx=0;entryDy=0;" edge="1" parent="1" source="NYRB-EgcLVh6eaDfTJj4-8" target="NYRB-EgcLVh6eaDfTJj4-12">
          <mxGeometry relative="1" as="geometry">
            <mxPoint x="190" y="390" as="targetPoint" />
          </mxGeometry>
        </mxCell>
        <mxCell id="NYRB-EgcLVh6eaDfTJj4-25" style="edgeStyle=orthogonalEdgeStyle;rounded=0;orthogonalLoop=1;jettySize=auto;html=1;exitX=0.75;exitY=1;exitDx=0;exitDy=0;entryX=0.5;entryY=0;entryDx=0;entryDy=0;" edge="1" parent="1" source="NYRB-EgcLVh6eaDfTJj4-8" target="NYRB-EgcLVh6eaDfTJj4-15">
          <mxGeometry relative="1" as="geometry" />
        </mxCell>
        <mxCell id="NYRB-EgcLVh6eaDfTJj4-27" style="edgeStyle=orthogonalEdgeStyle;rounded=0;orthogonalLoop=1;jettySize=auto;html=1;exitX=0.25;exitY=1;exitDx=0;exitDy=0;entryX=0.5;entryY=0;entryDx=0;entryDy=0;" edge="1" parent="1" source="NYRB-EgcLVh6eaDfTJj4-8" target="NYRB-EgcLVh6eaDfTJj4-13">
          <mxGeometry relative="1" as="geometry" />
        </mxCell>
        <mxCell id="NYRB-EgcLVh6eaDfTJj4-8" value="Model 2" style="rounded=0;whiteSpace=wrap;html=1;" vertex="1" parent="1">
          <mxGeometry x="200" y="240" width="80" height="40" as="geometry" />
        </mxCell>
        <mxCell id="NYRB-EgcLVh6eaDfTJj4-19" style="edgeStyle=orthogonalEdgeStyle;rounded=0;orthogonalLoop=1;jettySize=auto;html=1;exitX=1;exitY=0.5;exitDx=0;exitDy=0;entryX=0;entryY=0.5;entryDx=0;entryDy=0;" edge="1" parent="1" source="NYRB-EgcLVh6eaDfTJj4-9" target="NYRB-EgcLVh6eaDfTJj4-18">
          <mxGeometry relative="1" as="geometry" />
        </mxCell>
        <mxCell id="NYRB-EgcLVh6eaDfTJj4-22" style="edgeStyle=orthogonalEdgeStyle;rounded=0;orthogonalLoop=1;jettySize=auto;html=1;exitX=0.25;exitY=1;exitDx=0;exitDy=0;entryX=0.5;entryY=0;entryDx=0;entryDy=0;" edge="1" parent="1" source="NYRB-EgcLVh6eaDfTJj4-9" target="NYRB-EgcLVh6eaDfTJj4-20">
          <mxGeometry relative="1" as="geometry" />
        </mxCell>
        <mxCell id="NYRB-EgcLVh6eaDfTJj4-24" style="edgeStyle=orthogonalEdgeStyle;rounded=0;orthogonalLoop=1;jettySize=auto;html=1;exitX=0.75;exitY=1;exitDx=0;exitDy=0;entryX=0.5;entryY=0;entryDx=0;entryDy=0;" edge="1" parent="1" source="NYRB-EgcLVh6eaDfTJj4-9" target="NYRB-EgcLVh6eaDfTJj4-21">
          <mxGeometry relative="1" as="geometry" />
        </mxCell>
        <mxCell id="NYRB-EgcLVh6eaDfTJj4-9" value="Model 3" style="rounded=0;whiteSpace=wrap;html=1;" vertex="1" parent="1">
          <mxGeometry x="320" y="240" width="80" height="40" as="geometry" />
        </mxCell>
        <mxCell id="NYRB-EgcLVh6eaDfTJj4-49" style="edgeStyle=orthogonalEdgeStyle;rounded=0;orthogonalLoop=1;jettySize=auto;html=1;exitX=0.5;exitY=1;exitDx=0;exitDy=0;entryX=0.75;entryY=0;entryDx=0;entryDy=0;" edge="1" parent="1" source="NYRB-EgcLVh6eaDfTJj4-12" target="NYRB-EgcLVh6eaDfTJj4-32">
          <mxGeometry relative="1" as="geometry" />
        </mxCell>
        <mxCell id="NYRB-EgcLVh6eaDfTJj4-12" value="DDoS" style="ellipse;whiteSpace=wrap;html=1;" vertex="1" parent="1">
          <mxGeometry x="120" y="400" width="80" height="40" as="geometry" />
        </mxCell>
        <mxCell id="NYRB-EgcLVh6eaDfTJj4-48" style="edgeStyle=orthogonalEdgeStyle;rounded=0;orthogonalLoop=1;jettySize=auto;html=1;exitX=0.5;exitY=1;exitDx=0;exitDy=0;entryX=0.75;entryY=0;entryDx=0;entryDy=0;" edge="1" parent="1" source="NYRB-EgcLVh6eaDfTJj4-13" target="NYRB-EgcLVh6eaDfTJj4-33">
          <mxGeometry relative="1" as="geometry" />
        </mxCell>
        <mxCell id="NYRB-EgcLVh6eaDfTJj4-13" value="DoS" style="ellipse;whiteSpace=wrap;html=1;" vertex="1" parent="1">
          <mxGeometry x="180" y="360" width="80" height="40" as="geometry" />
        </mxCell>
        <mxCell id="NYRB-EgcLVh6eaDfTJj4-42" style="edgeStyle=orthogonalEdgeStyle;rounded=0;orthogonalLoop=1;jettySize=auto;html=1;exitX=0.5;exitY=1;exitDx=0;exitDy=0;entryX=0.5;entryY=0;entryDx=0;entryDy=0;" edge="1" parent="1" source="NYRB-EgcLVh6eaDfTJj4-15" target="NYRB-EgcLVh6eaDfTJj4-34">
          <mxGeometry relative="1" as="geometry" />
        </mxCell>
        <mxCell id="NYRB-EgcLVh6eaDfTJj4-15" value="Mirai" style="ellipse;whiteSpace=wrap;html=1;" vertex="1" parent="1">
          <mxGeometry x="230" y="310" width="80" height="40" as="geometry" />
        </mxCell>
        <mxCell id="NYRB-EgcLVh6eaDfTJj4-30" style="edgeStyle=orthogonalEdgeStyle;rounded=0;orthogonalLoop=1;jettySize=auto;html=1;exitX=0.25;exitY=1;exitDx=0;exitDy=0;entryX=0.5;entryY=0;entryDx=0;entryDy=0;" edge="1" parent="1" source="NYRB-EgcLVh6eaDfTJj4-18" target="NYRB-EgcLVh6eaDfTJj4-29">
          <mxGeometry relative="1" as="geometry" />
        </mxCell>
        <mxCell id="NYRB-EgcLVh6eaDfTJj4-31" style="edgeStyle=orthogonalEdgeStyle;rounded=0;orthogonalLoop=1;jettySize=auto;html=1;exitX=0.75;exitY=1;exitDx=0;exitDy=0;entryX=0.5;entryY=0;entryDx=0;entryDy=0;" edge="1" parent="1" source="NYRB-EgcLVh6eaDfTJj4-18" target="NYRB-EgcLVh6eaDfTJj4-28">
          <mxGeometry relative="1" as="geometry" />
        </mxCell>
        <mxCell id="NYRB-EgcLVh6eaDfTJj4-18" value="Model 4&lt;br&gt;" style="rounded=0;whiteSpace=wrap;html=1;" vertex="1" parent="1">
          <mxGeometry x="440" y="240" width="80" height="40" as="geometry" />
        </mxCell>
        <mxCell id="NYRB-EgcLVh6eaDfTJj4-43" style="edgeStyle=orthogonalEdgeStyle;rounded=0;orthogonalLoop=1;jettySize=auto;html=1;exitX=0.5;exitY=1;exitDx=0;exitDy=0;entryX=0.5;entryY=0;entryDx=0;entryDy=0;" edge="1" parent="1" source="NYRB-EgcLVh6eaDfTJj4-20" target="NYRB-EgcLVh6eaDfTJj4-35">
          <mxGeometry relative="1" as="geometry" />
        </mxCell>
        <mxCell id="NYRB-EgcLVh6eaDfTJj4-20" value="Spoofing" style="ellipse;whiteSpace=wrap;html=1;" vertex="1" parent="1">
          <mxGeometry x="290" y="360" width="80" height="40" as="geometry" />
        </mxCell>
        <mxCell id="NYRB-EgcLVh6eaDfTJj4-50" style="edgeStyle=orthogonalEdgeStyle;rounded=0;orthogonalLoop=1;jettySize=auto;html=1;exitX=0.5;exitY=1;exitDx=0;exitDy=0;entryX=0.25;entryY=0;entryDx=0;entryDy=0;" edge="1" parent="1" source="NYRB-EgcLVh6eaDfTJj4-21" target="NYRB-EgcLVh6eaDfTJj4-36">
          <mxGeometry relative="1" as="geometry" />
        </mxCell>
        <mxCell id="NYRB-EgcLVh6eaDfTJj4-21" value="Recon" style="ellipse;whiteSpace=wrap;html=1;" vertex="1" parent="1">
          <mxGeometry x="345" y="310" width="80" height="40" as="geometry" />
        </mxCell>
        <mxCell id="NYRB-EgcLVh6eaDfTJj4-28" value="BruteForce" style="ellipse;whiteSpace=wrap;html=1;" vertex="1" parent="1">
          <mxGeometry x="470" y="310" width="80" height="40" as="geometry" />
        </mxCell>
        <mxCell id="NYRB-EgcLVh6eaDfTJj4-51" style="edgeStyle=orthogonalEdgeStyle;rounded=0;orthogonalLoop=1;jettySize=auto;html=1;exitX=0.5;exitY=1;exitDx=0;exitDy=0;entryX=0.25;entryY=0;entryDx=0;entryDy=0;" edge="1" parent="1" source="NYRB-EgcLVh6eaDfTJj4-29" target="NYRB-EgcLVh6eaDfTJj4-37">
          <mxGeometry relative="1" as="geometry" />
        </mxCell>
        <mxCell id="NYRB-EgcLVh6eaDfTJj4-29" value="Web" style="ellipse;whiteSpace=wrap;html=1;" vertex="1" parent="1">
          <mxGeometry x="420" y="360" width="80" height="40" as="geometry" />
        </mxCell>
        <mxCell id="NYRB-EgcLVh6eaDfTJj4-32" value="Model 5" style="rounded=0;whiteSpace=wrap;html=1;" vertex="1" parent="1">
          <mxGeometry x="50" y="470" width="80" height="40" as="geometry" />
        </mxCell>
        <mxCell id="NYRB-EgcLVh6eaDfTJj4-33" value="Model 6" style="rounded=0;whiteSpace=wrap;html=1;" vertex="1" parent="1">
          <mxGeometry x="140" y="470" width="80" height="40" as="geometry" />
        </mxCell>
        <mxCell id="NYRB-EgcLVh6eaDfTJj4-34" value="Model 7" style="rounded=0;whiteSpace=wrap;html=1;" vertex="1" parent="1">
          <mxGeometry x="230" y="470" width="80" height="40" as="geometry" />
        </mxCell>
        <mxCell id="NYRB-EgcLVh6eaDfTJj4-35" value="Model 8" style="rounded=0;whiteSpace=wrap;html=1;" vertex="1" parent="1">
          <mxGeometry x="320" y="470" width="80" height="40" as="geometry" />
        </mxCell>
        <mxCell id="NYRB-EgcLVh6eaDfTJj4-36" value="Model 9" style="rounded=0;whiteSpace=wrap;html=1;" vertex="1" parent="1">
          <mxGeometry x="410" y="470" width="80" height="40" as="geometry" />
        </mxCell>
        <mxCell id="NYRB-EgcLVh6eaDfTJj4-37" value="Model 10" style="rounded=0;whiteSpace=wrap;html=1;" vertex="1" parent="1">
          <mxGeometry x="500" y="470" width="80" height="40" as="geometry" />
        </mxCell>
      </root>
    </mxGraphModel>
  </diagram>
</mxfile>
